@startuml
	right header
	<font size=24 color=black>Package: <b>BEM_1.0
	
	end header
	
	title
	<font size=18 color=black> Аналітичний портал
	<font size=16 color=black>BE-модель 
	
	end title
	
	entity Report
	entity Report.Config
	entity Report.Config.id
	entity Report.Config.title
	entity Report.Config.uri
	entity Report.Config.description
	entity Report.updatedAt
	entity Report.createdAt
	
	Report.updatedAt -* Report
	Report.createdAt --* Report
	
	Report.Config.id --* Report.Config
	Report.Config.title --* Report.Config
	Report.Config.uri --* Report.Config
	Report.Config.description --* Report.Config
	
	Report.Config --* Report
	
	entity ReportTemplate
	
	ReportTemplate -l-|> Report
	
	
	entity User
	entity User.name
	entity User.photo
	entity User.email
	
	User.name --* User
	User.photo --* User
	User.email --* User
	
	entity Guest
	entity Author
	entity Collaborator
	entity Administrator
	
	Guest -u-|> User
	Author -u-|> User
	Collaborator -u-|> User
	Administrator -u-|> User
	
	
	Report "0,*"---"1,1" User: Author
	Report "0,*"---"0,*" User: Collaborator
	
	entity Tag
	
	Tag "0,*"---"0,*" Report
	
	entity Category
	entity Category.name
	entity Category.icon
	entity Category.description
	
	Category.name -d-* Category
	Category.icon -d-* Category
	Category.description -d-* Category
	
	Category "0,1" -o "0,*"Category
	
	Report "0,*"--- "1,1" Category
	
	right footer
	
	НТУУ КПІ ім.І.Сікорського
	Киів-2020 
	end footer
@enduml

@startuml
	right header
	<font size=24 color=black>Package: <b>BEM_1.1
	
	end header
	
	title
	<font size=18 color=black> Аналітичний портал
	<font size=16 color=black>BE-модель 
	
	end title
	
	entity Report
	entity Report.Config
	entity Report.Config.id
	entity Report.Config.title
	entity Report.Config.uri
	entity Report.Config.description
	entity Report.updatedAt
	entity Report.createdAt
	
	Report.updatedAt -* Report
	Report.createdAt --* Report
	
	Report.Config.id --* Report.Config
	Report.Config.title --* Report.Config
	Report.Config.uri --* Report.Config
	Report.Config.description --* Report.Config
	
	Report.Config --* Report
	
	entity ReportTemplate
	
	ReportTemplate -l-|> Report
	
	
	entity User
	entity User.name
	entity User.photo
	entity User.email
	
	User.name --* User
	User.photo --* User
	User.email --* User
	
	entity Guest
	entity Author
	entity Collaborator
	entity Administrator
	
	Guest -u-|> User
	Author -u-|> User
	Collaborator -u-|> User
	Administrator -u-|> User
	
	
	Report "0,*"---"1,1" User: Author
	Report "0,*"---"0,*" User: Collaborator
	
	entity Tag
	
	Tag "0,*"---"0,*" Report
	
	entity Category
	entity Category.name
	entity Category.icon
	entity Category.description
	
	Category.name -d-* Category
	Category.icon -d-* Category
	Category.description -d-* Category
	
	Category "0,1" -o "0,*"Category
	
	Report "0,*"--- "1,1" Category
	
	right footer
	
	НТУУ КПІ ім.І.Сікорського
	Киів-2020 
	end footer
@enduml



@startuml
	right header
	<font size=24 color=black>Package: <b>BEM_1.1
	
	end header
	
	title
	<font size=18 color=black> Аналітичний портал
	<font size=16 color=black>BE-модель 
	
	end title
	
	entity Report
	
	entity Report.Config.id
	entity Report.Config.title
	entity Report.Config.uri
	entity Report.Config.description
	entity Report.updatedAt
	entity Report.createdAt
	
	Report.updatedAt -* Report
	Report.createdAt --* Report
	
	Report.Config.id --* Report
	Report.Config.title --* Report
	Report.Config.uri --* Report
	Report.Config.description --* Report
	
	
	entity Report.isTemplate
	
	Report.isTemplate -* Report
	
	
	entity User
	entity User.name
	entity User.photo
	entity User.email
	
	entity Role
	entity Role.name
	entity Role.description
	
	Role.name -* Role
	Role.description -d-* Role
	
	User.name --* User
	User.photo --* User
	User.email --* User
	
	
	
	
	entity Tag
	entity Tag.value
	
	Tag.value -* Tag
	
	
	
	entity Category
	entity Category.name
	entity Category.icon
	entity Category.description
	
	Category.name -d-* Category
	Category.icon -d-* Category
	Category.description -d-* Category
	
	Category "0,1" -o "0,*"Category
	
	Report "0,*"--- "1,1" Category
	
	
	
	entity Link
	
	Report "1,1" -- "0,*" Link
	Tag "1,1" -u- "0,*" Link
	
	entity Access
	
	Report "1,1"--"0,*" Access
	User "1,1"--"0,*" Access
	Role "1,1"--"0,*" Access
	
	right footer
	
	НТУУ КПІ ім.І.Сікорського
	Киів-2020 
	end footer
@enduml


@startuml
	right header
	<font size=24 color=black>Package: <b>BEM_1.1
	
	end header
	
	title
	<font size=18 color=black> Аналітичний портал
	<font size=16 color=black>BE-модель 
	
	end title
	
	entity Report
	
	entity Report.Config.id
	entity Report.Config.title
	entity Report.Config.uri
	entity Report.Config.description
	entity Report.updatedAt
	entity Report.createdAt
	
	Report.updatedAt -* Report
	Report.createdAt --* Report
	
	Report.Config.id --* Report
	Report.Config.title --* Report
	Report.Config.uri --* Report
	Report.Config.description --* Report
	
	
	entity Report.isTemplate
	
	Report.isTemplate -* Report
	
	
	entity User
	entity User.name
	entity User.photo
	entity User.email
	
	entity Role
	entity Role.name
	entity Role.description
	
	Role.name -* Role
	Role.description -d-* Role
	
	User.name --* User
	User.photo --* User
	User.email --* User
	
	
	
	
	entity Tag
	entity Tag.value
	
	Tag.value -* Tag
	
	
	
	entity Category
	entity Category.name
	entity Category.icon
	entity Category.description
	
	Category.name -d-* Category
	Category.icon -d-* Category
	Category.description -d-* Category
	
	Category "0,1" -o "0,*"Category
	
	Report "0,*"--- "1,1" Category
	
	
	
	entity Link
	
	Report "1,1" -- "0,*" Link
	Tag "1,1" -u- "0,*" Link
	
	entity Access
	
	Report "1,1"--"0,*" Access
	User "1,1"--"0,*" Access
	Role "1,1"--"0,*" Access
	
	right footer
	
	НТУУ КПІ ім.І.Сікорського
	Киів-2020 
	end footer
@enduml


@startuml
	right header
	<font size=24 color=black>Package: <b>ER_1.0
	
	end header
	
	title
	<font size=18 color=black> Аналітичний портал
	<font size=16 color=black>ER-модель 
	
	end title
	
	entity Report {
		id
		title
		uri
		description
		isTemplate 
		updatedAt
		createdAt
	}
	
	
	entity User {
		name
		photo
		email
	}
	
	entity Role {
		name
		description
	}
	
	
	entity Tag {
		value
	}
		
	
	entity Category {
		name
		icon
		description
	}
	
	Category "0,1" -o "0,*"Category
	
	Report "0,*"--- "1,1" Category
	
	
	
	entity Link
	
	Report "1,1" -- "0,*" Link
	Tag "1,1" -u- "0,*" Link
	
	entity Access
	
	Report "1,1"--"0,*" Access
	User "1,1"--"0,*" Access
	Role "1,1"--"0,*" Access
	
	right footer
	
	НТУУ КПІ ім.І.Сікорського
	Киів-2020 
	end footer
@enduml




@startuml

right header
<font size=24 color=black>Package: <b>ERM_1.1

end header

title
<font size=18 color=black> Аналітичний портал
<font size=16 color=black>ER-модель 


end title

package " User Profile Management" {
	entity User #ffeeee {
		name
		photo
		email
	}
}	
	
package Domain {
	entity Report #ffeeee {
		id
		name
		description
		uri
		options
	}
	


	package "Data Structurization"{
		entity Tag #ffeeee {
			name
		}	
		
		entity Link	#eeeeff 
			
		
		Tag "1,1" <- "0,*" Link #blue
		Link "0,*" --> "1,1" Report #blue	 
		
		
		entity Category #eeffee {
			name
		}	
			
		Category "0.*" -o "0,1" Category	
		
		Category "0,1" <-r "0,*" Report #green
	}
}
package "Global Settings" {
	entity Variable #ffeeee {
		name
		value
	}
}
package "Access Policy" {	

entity Role #yellow {
	name
}

object author #white
object collaborator #white
object guest #white
object administrator #white

author ..> Role : instanceOf
collaborator ..> Role : instanceOf
guest .r.> Role : instanceOf
administrator ..> Role : instanceOf

entity Access #eeeeff

User "1,1" <-d- "0,*" Access #blue
Report "0,1" <-r- "0,*" Access #blue
Access "0,*" -> "1,1" Role #blue


entity ObjectType #yellow{
	name
}

object report #white
object user #white
object role #white
object category #white
object tag #white

report .u.> ObjectType :instanseOf
user .u.> ObjectType :instanseOf
role .u.> ObjectType :instanseOf
category .u.> ObjectType :instanseOf
tag .u.> ObjectType :instanseOf


entity OperationType #yellow{
	name
}

object create #white
object read #white
object update #white
object delete #white

create ..> OperationType : instanceOf
read ..> OperationType : instanceOf
update ..> OperationType : instanceOf
delete ..> OperationType : instanceOf

entity RequestType #eeeeff {
	name
}

RequestType "0,*" -l-> "0,1" OperationType #blue
RequestType "0,*" --> "0,1" ObjectType #blue

entity Grant #eeeeff 

RequestType "1,1" <-l-- "0.*" Grant #blue 
Grant "0,*" -u-> "1,1" Role #blue
}
right footer

НТУУ КПІ ім.І.Сікорського
Киів-2020 
end footer

@enduml
